<svg width="47" height="24" viewBox="0 0 47 24" fill="none" xmlns="http://www.w3.org/2000/svg">
<path d="M0.489965 0.0305895C1.39434 0.0249038 2.29871 0.0205554 3.20311 0.0178964C3.62309 0.01662 4.04306 0.0148895 4.46303 0.0121082C4.86862 0.00943904 5.27419 0.00797987 5.67978 0.00734624C5.83423 0.0068949 5.98868 0.00601354 6.14312 0.00468749C6.36008 0.00289942 6.57699 0.00266462 6.79395 0.00277777C6.88893 0.00145661 6.88893 0.00145661 6.98583 0.000108748C7.5019 0.00300584 7.94676 0.106591 8.36481 0.428686C8.41881 0.48595 8.47281 0.543215 8.52845 0.602215C8.59013 0.667585 8.65182 0.732955 8.71537 0.800306C8.96354 1.0813 9.20127 1.36933 9.43565 1.66189C9.66223 1.94115 9.89592 2.21346 10.131 2.48552C10.4632 2.87063 10.7861 3.26096 11.1014 3.66003C11.3012 3.90843 11.5067 4.15153 11.7132 4.39434C12.1157 4.86756 12.5103 5.34669 12.9024 5.8285C13.0944 6.06236 13.2864 6.2962 13.4785 6.52996C13.6172 6.70178 13.7513 6.87576 13.8823 7.05342C14.1858 6.95228 14.2575 6.83373 14.454 6.58387C14.5512 6.46197 14.5512 6.46197 14.6505 6.33761C14.6849 6.2944 14.7193 6.25118 14.7548 6.20666C14.9362 5.98187 15.124 5.7625 15.3114 5.54269C15.5854 5.22047 15.8563 4.89623 16.1229 4.56787C16.446 4.17075 16.7784 3.78233 17.1125 3.39451C17.422 3.03456 17.7238 2.66901 18.0231 2.3005C18.3106 1.94981 18.6045 1.60457 18.8981 1.25901C19.0048 1.1331 19.1114 1.00708 19.2143 0.878119C19.4083 0.636469 19.5861 0.447832 19.8538 0.290883C19.9079 0.258356 19.962 0.225829 20.0177 0.192316C20.3456 0.0201575 20.6173 0.0199716 20.9824 0.0191209C21.0695 0.018757 21.0695 0.018757 21.1584 0.0183857C21.3536 0.017676 21.5487 0.0175531 21.7439 0.0174313C21.8837 0.0170533 22.0235 0.016643 22.1633 0.0162027C22.5438 0.0151299 22.9244 0.0146043 23.3049 0.0142419C23.5432 0.0140024 23.7816 0.0136671 24.0199 0.0133025C24.767 0.0121847 25.5142 0.0113962 26.2614 0.0110812C27.1207 0.0107168 27.9801 0.00929126 28.8395 0.00691641C29.5053 0.00514123 30.1711 0.00432692 30.8369 0.0042183C31.2336 0.00413331 31.6304 0.00366378 32.0271 0.00219151C32.4018 0.000828712 32.7764 0.000677731 33.151 0.00138625C33.2871 0.0014483 33.4232 0.0011062 33.5594 0.000287243C34.8445 -0.00697817 36.135 0.122654 37.37 0.495035C37.4754 0.526171 37.4754 0.526171 37.583 0.557935C39.1007 1.02374 40.5289 1.76227 41.7287 2.80706C41.7964 2.8659 41.8642 2.92474 41.9341 2.98537C42.1406 3.16811 42.3434 3.35413 42.5453 3.542C42.6057 3.59706 42.6661 3.65211 42.7284 3.70883C44.6522 5.53339 45.9663 8.42781 46.0667 11.0743C46.0941 12.3314 46.1209 13.5841 45.8117 14.8112C45.7963 14.8743 45.781 14.9373 45.7652 15.0023C45.3822 16.5299 44.7375 17.9735 43.7702 19.2209C43.7134 19.2956 43.6567 19.3703 43.5982 19.4474C42.0195 21.4545 39.9475 22.8176 37.4976 23.5234C37.4446 23.5389 37.3915 23.5545 37.3369 23.5705C36.1565 23.8925 34.9841 23.9938 33.7667 23.9902C33.6222 23.9907 33.4777 23.9912 33.3332 23.9919C32.9457 23.9933 32.5582 23.9933 32.1707 23.9928C31.8457 23.9925 31.5208 23.993 31.1959 23.9935C30.4294 23.9947 29.663 23.9946 28.8965 23.9936C28.1078 23.9927 27.3191 23.9938 26.5304 23.996C25.8504 23.9978 25.1704 23.9984 24.4904 23.9979C24.0854 23.9976 23.6805 23.9978 23.2756 23.9992C22.8954 24.0005 22.5152 24.0002 22.135 23.9986C21.996 23.9983 21.857 23.9986 21.7181 23.9994C20.7233 24.0051 19.9331 23.9274 19.1794 23.217C18.9222 22.9503 18.6865 22.6696 18.4553 22.3801C18.4055 22.3187 18.3557 22.2572 18.3043 22.1939C18.1635 22.0199 18.0235 21.8454 17.8837 21.6707C17.8238 21.5962 17.7639 21.5216 17.7022 21.4449C17.6021 21.3199 17.5023 21.1947 17.4027 21.0694C17.1753 20.7852 16.945 20.5033 16.7149 20.2212C16.3807 19.811 16.0501 19.3983 15.7248 18.981C15.3372 18.4841 14.9382 17.9971 14.5362 17.5118C14.2157 17.1247 13.901 16.7341 13.5927 16.3372C13.4813 16.1899 13.4813 16.1899 13.3107 16.1178C13.2886 16.1655 13.2665 16.2132 13.2437 16.2624C13.148 16.4433 13.0436 16.5856 12.9129 16.7427C12.8665 16.7988 12.82 16.855 12.7721 16.9128C12.7225 16.9721 12.6728 17.0315 12.6217 17.0926C12.5706 17.1542 12.5195 17.2158 12.4668 17.2792C12.1181 17.6986 11.766 18.115 11.4127 18.5305C11.1486 18.8417 10.8926 19.1585 10.6389 19.4783C10.0135 20.2589 9.37343 21.0281 8.72476 21.7895C8.48645 22.0697 8.25394 22.354 8.02317 22.6404C7.90793 22.7803 7.79229 22.9198 7.67611 23.0589C7.62959 23.1155 7.58306 23.172 7.53512 23.2302C7.08839 23.7288 6.54842 23.927 5.88617 23.9854C5.51102 23.9989 5.13616 23.994 4.76089 23.9891C4.62303 23.9885 4.48517 23.988 4.3473 23.9877C3.98737 23.9865 3.62749 23.9833 3.26757 23.9796C2.89914 23.9763 2.5307 23.9748 2.16226 23.9731C1.44148 23.9697 0.720748 23.9641 0 23.9572C0.230868 23.6056 0.475227 23.2797 0.750258 22.962C0.830383 22.8683 0.910448 22.7747 0.990456 22.6809C1.03005 22.6346 1.06964 22.5883 1.11044 22.5405C1.39893 22.2006 1.67857 21.8533 1.95986 21.5074C2.20451 21.2077 2.44953 20.9083 2.69481 20.6091C2.73748 20.557 2.78015 20.505 2.82412 20.4514C3.35267 19.807 3.88323 19.1647 4.423 18.5297C4.77812 18.1114 5.12518 17.6868 5.47127 17.261C5.85779 16.7855 6.24739 16.3134 6.64515 15.8473C6.95405 15.485 7.25192 15.1161 7.54341 14.7397C7.90242 14.2766 8.28037 13.8336 8.66707 13.3935C9.11996 12.8752 9.54319 12.3352 9.96262 11.7897C9.7036 11.3824 9.40978 11.0162 9.10007 10.6465C8.73632 10.209 8.37726 9.76891 8.02828 9.3195C7.70659 8.90585 7.37366 8.50407 7.0328 8.10613C6.76382 7.79063 6.50622 7.46777 6.25215 7.14018C5.90325 6.69068 5.53959 6.25667 5.1672 5.82651C4.87661 5.49037 4.59579 5.14794 4.32005 4.79945C3.79285 4.13478 3.24773 3.48405 2.70826 2.82932C2.37886 2.42948 2.05002 2.02918 1.72253 1.62776C1.60055 1.47869 1.47799 1.3301 1.35506 1.18181C1.29021 1.10339 1.22537 1.02497 1.15856 0.944169C1.10077 0.874589 1.04298 0.805008 0.983438 0.733319C0.805723 0.506672 0.648546 0.27089 0.489965 0.0305895Z" fill="#F9F9F9"/>
<path d="M23.6359 4.42843C23.7283 4.42785 23.8206 4.42726 23.9158 4.42666C24.0172 4.42644 24.1186 4.42622 24.2231 4.426C24.3833 4.42519 24.3833 4.42519 24.5467 4.42437C24.9015 4.42265 25.2563 4.4218 25.6111 4.42099C25.7337 4.42066 25.8563 4.42032 25.9789 4.41998C26.556 4.41843 27.133 4.41726 27.71 4.41658C28.373 4.41579 29.0359 4.41365 29.6988 4.41034C30.2129 4.40786 30.7269 4.40666 31.241 4.40639C31.5471 4.4062 31.8532 4.40549 32.1593 4.40342C34.5159 4.38826 36.5944 4.65884 38.4622 6.23699C38.5277 6.29057 38.5931 6.34415 38.6606 6.39935C40.0398 7.57442 41.018 9.32554 41.2387 11.1366C41.3903 13.4936 40.8026 15.3152 39.2482 17.1132C38.4363 17.9901 37.4402 18.6649 36.3237 19.0883C36.2724 19.1078 36.221 19.1273 36.1682 19.1474C35.3437 19.4423 34.5532 19.4889 33.6818 19.482C33.5695 19.4817 33.4572 19.4814 33.3448 19.4813C33.0519 19.4807 32.759 19.4791 32.466 19.4772C32.166 19.4756 31.866 19.4748 31.566 19.474C30.9794 19.4723 30.3928 19.4695 29.8061 19.466C29.806 19.4042 29.8058 19.3424 29.8056 19.2787C29.8007 17.7738 29.7946 16.2689 29.7869 14.764C29.7832 14.0363 29.78 13.3086 29.7779 12.5808C29.776 11.9465 29.7733 11.3121 29.7695 10.6778C29.7676 10.342 29.766 10.0061 29.7655 9.67028C29.765 9.35404 29.7634 9.03783 29.7609 8.7216C29.7602 8.60567 29.7599 8.48973 29.76 8.37379C29.7601 8.21518 29.7586 8.05658 29.757 7.89798C29.7565 7.76497 29.7565 7.76497 29.7559 7.62927C29.7184 7.33191 29.6411 7.1426 29.4795 6.89027C28.006 6.0062 26.0529 6.59325 24.3349 6.56363C24.3349 11.2256 24.3349 15.8877 24.3349 20.6909C24.0383 20.3944 23.7611 20.0977 23.4927 19.7774C23.4533 19.7305 23.4139 19.6836 23.3732 19.6354C23.0956 19.3043 22.8237 18.9691 22.5552 18.6306C22.3286 18.3462 22.0992 18.0639 21.8697 17.7818C21.8019 17.6983 21.8019 17.6983 21.7327 17.6131C21.5022 17.3297 21.2716 17.0466 21.0407 16.7636C20.6199 16.2474 20.2018 15.7297 19.7925 15.2044C19.5045 14.8348 19.2091 14.4733 18.9044 14.1173C18.511 13.6574 18.1342 13.1864 17.7637 12.708C17.6354 12.5423 17.5049 12.3805 17.3707 12.2193C17.2912 12.123 17.2912 12.123 17.21 12.0247C17.1641 11.9706 17.1182 11.9165 17.0709 11.8607C16.9854 11.7083 16.9854 11.7083 17.0075 11.5522C17.0731 11.3643 17.149 11.261 17.2814 11.1133C17.3253 11.0638 17.3691 11.0142 17.4143 10.9631C17.4614 10.9109 17.5085 10.8587 17.557 10.8049C17.6547 10.6945 17.7523 10.584 17.8499 10.4735C17.8977 10.4194 17.9456 10.3653 17.9949 10.3095C18.1702 10.1093 18.3388 9.90414 18.5063 9.69736C18.7711 9.37052 19.0403 9.04808 19.3127 8.72764C19.6495 8.33134 19.9805 7.93078 20.3086 7.52729C20.5518 7.23172 20.8006 6.94108 21.0494 6.65019C21.2895 6.36745 21.5193 6.0786 21.7449 5.78418C22.782 4.43214 22.782 4.43214 23.6359 4.42843Z" fill="#0D0D0D"/>
</svg>
